<mxfile host="app.diagrams.net" modified="2022-04-24T13:54:00.988Z" agent="5.0 (Windows NT 10.0; WOW64) AppleWebKit/537.36 (KHTML, like Gecko) Chrome/100.0.4896.127 Safari/537.36" etag="tqMGbdmnY9m3SuyyLpO0" version="17.4.6" type="github">
  <diagram id="C5RBs43oDa-KdzZeNtuy" name="Page-1">
    <mxGraphModel dx="868" dy="1619" grid="1" gridSize="10" guides="1" tooltips="1" connect="1" arrows="1" fold="1" page="1" pageScale="1" pageWidth="827" pageHeight="1169" math="0" shadow="0">
      <root>
        <mxCell id="WIyWlLk6GJQsqaUBKTNV-0" />
        <mxCell id="WIyWlLk6GJQsqaUBKTNV-1" parent="WIyWlLk6GJQsqaUBKTNV-0" />
        <mxCell id="FLbaVPVIVYFWpMP3JH_1-37" value="id:serial" style="rounded=0;whiteSpace=wrap;html=1;" vertex="1" parent="WIyWlLk6GJQsqaUBKTNV-1">
          <mxGeometry x="470" y="-900" width="230" height="40" as="geometry" />
        </mxCell>
        <mxCell id="FLbaVPVIVYFWpMP3JH_1-39" value="cars_id: int" style="rounded=0;whiteSpace=wrap;html=1;" vertex="1" parent="WIyWlLk6GJQsqaUBKTNV-1">
          <mxGeometry x="470" y="-820" width="230" height="50" as="geometry" />
        </mxCell>
        <mxCell id="FLbaVPVIVYFWpMP3JH_1-38" value="employe_id:&amp;nbsp; int" style="rounded=0;whiteSpace=wrap;html=1;" vertex="1" parent="WIyWlLk6GJQsqaUBKTNV-1">
          <mxGeometry x="470" y="-860" width="230" height="40" as="geometry" />
        </mxCell>
        <mxCell id="FLbaVPVIVYFWpMP3JH_1-7" value="many to one&amp;nbsp;" style="text;html=1;align=center;verticalAlign=middle;resizable=0;points=[];autosize=1;strokeColor=none;fillColor=none;" vertex="1" parent="WIyWlLk6GJQsqaUBKTNV-1">
          <mxGeometry x="400" y="-1160" width="80" height="20" as="geometry" />
        </mxCell>
        <mxCell id="FLbaVPVIVYFWpMP3JH_1-3" style="edgeStyle=orthogonalEdgeStyle;rounded=0;orthogonalLoop=1;jettySize=auto;html=1;" edge="1" parent="WIyWlLk6GJQsqaUBKTNV-1">
          <mxGeometry relative="1" as="geometry">
            <mxPoint x="190" y="-960" as="targetPoint" />
            <mxPoint x="190" y="-960" as="sourcePoint" />
          </mxGeometry>
        </mxCell>
        <mxCell id="zkfFHV4jXpPFQw0GAbJ--6" value="Student" style="swimlane;fontStyle=0;align=center;verticalAlign=top;childLayout=stackLayout;horizontal=1;startSize=26;horizontalStack=0;resizeParent=1;resizeLast=0;collapsible=1;marginBottom=0;rounded=0;shadow=0;strokeWidth=1;" parent="WIyWlLk6GJQsqaUBKTNV-1" vertex="1">
          <mxGeometry x="110" y="-1120" width="160" height="120" as="geometry">
            <mxRectangle x="130" y="380" width="160" height="26" as="alternateBounds" />
          </mxGeometry>
        </mxCell>
        <mxCell id="zkfFHV4jXpPFQw0GAbJ--7" value="id: serial" style="text;align=left;verticalAlign=top;spacingLeft=4;spacingRight=4;overflow=hidden;rotatable=0;points=[[0,0.5],[1,0.5]];portConstraint=eastwest;" parent="zkfFHV4jXpPFQw0GAbJ--6" vertex="1">
          <mxGeometry y="26" width="160" height="26" as="geometry" />
        </mxCell>
        <mxCell id="zkfFHV4jXpPFQw0GAbJ--8" value="name : varchar(255)&#xa;&#xa;teacher_id: int" style="text;align=left;verticalAlign=top;spacingLeft=4;spacingRight=4;overflow=hidden;rotatable=0;points=[[0,0.5],[1,0.5]];portConstraint=eastwest;rounded=0;shadow=0;html=0;" parent="zkfFHV4jXpPFQw0GAbJ--6" vertex="1">
          <mxGeometry y="52" width="160" height="68" as="geometry" />
        </mxCell>
        <mxCell id="zkfFHV4jXpPFQw0GAbJ--13" value="teacher" style="swimlane;fontStyle=0;align=center;verticalAlign=top;childLayout=stackLayout;horizontal=1;startSize=26;horizontalStack=0;resizeParent=1;resizeLast=0;collapsible=1;marginBottom=0;rounded=0;shadow=0;strokeWidth=1;" parent="WIyWlLk6GJQsqaUBKTNV-1" vertex="1">
          <mxGeometry x="530" y="-1110" width="160" height="80" as="geometry">
            <mxRectangle x="340" y="380" width="170" height="26" as="alternateBounds" />
          </mxGeometry>
        </mxCell>
        <mxCell id="zkfFHV4jXpPFQw0GAbJ--14" value="id: serial&#xa;&#xa;name: varchar(255)" style="text;align=left;verticalAlign=top;spacingLeft=4;spacingRight=4;overflow=hidden;rotatable=0;points=[[0,0.5],[1,0.5]];portConstraint=eastwest;" parent="zkfFHV4jXpPFQw0GAbJ--13" vertex="1">
          <mxGeometry y="26" width="160" height="44" as="geometry" />
        </mxCell>
        <mxCell id="FLbaVPVIVYFWpMP3JH_1-6" value="" style="endArrow=classic;html=1;rounded=0;exitX=1.025;exitY=0.647;exitDx=0;exitDy=0;exitPerimeter=0;entryX=-0.012;entryY=0.364;entryDx=0;entryDy=0;entryPerimeter=0;" edge="1" parent="WIyWlLk6GJQsqaUBKTNV-1" source="zkfFHV4jXpPFQw0GAbJ--8" target="zkfFHV4jXpPFQw0GAbJ--14">
          <mxGeometry width="50" height="50" relative="1" as="geometry">
            <mxPoint x="400" y="-900" as="sourcePoint" />
            <mxPoint x="450" y="-950" as="targetPoint" />
            <Array as="points">
              <mxPoint x="390" y="-1070" />
            </Array>
          </mxGeometry>
        </mxCell>
        <mxCell id="FLbaVPVIVYFWpMP3JH_1-9" style="edgeStyle=orthogonalEdgeStyle;rounded=0;orthogonalLoop=1;jettySize=auto;html=1;" edge="1" parent="WIyWlLk6GJQsqaUBKTNV-1" source="FLbaVPVIVYFWpMP3JH_1-7">
          <mxGeometry relative="1" as="geometry">
            <mxPoint x="430" y="-1100" as="targetPoint" />
          </mxGeometry>
        </mxCell>
        <mxCell id="FLbaVPVIVYFWpMP3JH_1-10" value="" style="rounded=0;whiteSpace=wrap;html=1;" vertex="1" parent="WIyWlLk6GJQsqaUBKTNV-1">
          <mxGeometry x="100" y="-950" width="120" height="90" as="geometry" />
        </mxCell>
        <mxCell id="FLbaVPVIVYFWpMP3JH_1-11" value="Text" style="text;html=1;strokeColor=none;fillColor=none;align=center;verticalAlign=middle;whiteSpace=wrap;rounded=0;" vertex="1" parent="WIyWlLk6GJQsqaUBKTNV-1">
          <mxGeometry x="150" y="-770" width="60" height="30" as="geometry" />
        </mxCell>
        <mxCell id="FLbaVPVIVYFWpMP3JH_1-16" value="id: serial" style="text;html=1;strokeColor=none;fillColor=none;align=center;verticalAlign=middle;whiteSpace=wrap;rounded=0;" vertex="1" parent="WIyWlLk6GJQsqaUBKTNV-1">
          <mxGeometry x="100" y="-920" width="120" height="30" as="geometry" />
        </mxCell>
        <mxCell id="FLbaVPVIVYFWpMP3JH_1-17" value="name: varchar(255)" style="text;html=1;strokeColor=none;fillColor=none;align=center;verticalAlign=middle;whiteSpace=wrap;rounded=0;" vertex="1" parent="WIyWlLk6GJQsqaUBKTNV-1">
          <mxGeometry x="100" y="-890" width="120" height="30" as="geometry" />
        </mxCell>
        <mxCell id="FLbaVPVIVYFWpMP3JH_1-20" value="" style="rounded=0;whiteSpace=wrap;html=1;" vertex="1" parent="WIyWlLk6GJQsqaUBKTNV-1">
          <mxGeometry x="100" y="-820" width="120" height="90" as="geometry" />
        </mxCell>
        <mxCell id="FLbaVPVIVYFWpMP3JH_1-22" value="id: serial" style="text;html=1;strokeColor=none;fillColor=none;align=center;verticalAlign=middle;whiteSpace=wrap;rounded=0;" vertex="1" parent="WIyWlLk6GJQsqaUBKTNV-1">
          <mxGeometry x="100" y="-790" width="120" height="30" as="geometry" />
        </mxCell>
        <mxCell id="FLbaVPVIVYFWpMP3JH_1-23" value="name: varchar(255)" style="text;html=1;strokeColor=none;fillColor=none;align=center;verticalAlign=middle;whiteSpace=wrap;rounded=0;" vertex="1" parent="WIyWlLk6GJQsqaUBKTNV-1">
          <mxGeometry x="100" y="-760" width="120" height="30" as="geometry" />
        </mxCell>
        <mxCell id="FLbaVPVIVYFWpMP3JH_1-34" value="" style="rounded=0;whiteSpace=wrap;html=1;" vertex="1" parent="WIyWlLk6GJQsqaUBKTNV-1">
          <mxGeometry x="100" y="-947.5" width="120" height="25" as="geometry" />
        </mxCell>
        <mxCell id="FLbaVPVIVYFWpMP3JH_1-12" value="employees" style="text;html=1;strokeColor=none;fillColor=none;align=center;verticalAlign=middle;whiteSpace=wrap;rounded=0;" vertex="1" parent="WIyWlLk6GJQsqaUBKTNV-1">
          <mxGeometry x="100" y="-950" width="120" height="30" as="geometry" />
        </mxCell>
        <mxCell id="FLbaVPVIVYFWpMP3JH_1-35" value="" style="rounded=0;whiteSpace=wrap;html=1;" vertex="1" parent="WIyWlLk6GJQsqaUBKTNV-1">
          <mxGeometry x="100" y="-820" width="120" height="20" as="geometry" />
        </mxCell>
        <mxCell id="FLbaVPVIVYFWpMP3JH_1-21" value="carsOfFirm" style="text;html=1;strokeColor=none;fillColor=none;align=center;verticalAlign=middle;whiteSpace=wrap;rounded=0;" vertex="1" parent="WIyWlLk6GJQsqaUBKTNV-1">
          <mxGeometry x="100" y="-825" width="120" height="30" as="geometry" />
        </mxCell>
        <mxCell id="FLbaVPVIVYFWpMP3JH_1-36" value="employees_carsOfFirm" style="rounded=0;whiteSpace=wrap;html=1;" vertex="1" parent="WIyWlLk6GJQsqaUBKTNV-1">
          <mxGeometry x="470" y="-940" width="230" height="40" as="geometry" />
        </mxCell>
        <mxCell id="FLbaVPVIVYFWpMP3JH_1-41" value="" style="endArrow=classic;html=1;rounded=0;exitX=0;exitY=0.5;exitDx=0;exitDy=0;entryX=1;entryY=0.5;entryDx=0;entryDy=0;" edge="1" parent="WIyWlLk6GJQsqaUBKTNV-1" source="FLbaVPVIVYFWpMP3JH_1-38" target="FLbaVPVIVYFWpMP3JH_1-16">
          <mxGeometry width="50" height="50" relative="1" as="geometry">
            <mxPoint x="400" y="-870" as="sourcePoint" />
            <mxPoint x="450" y="-920" as="targetPoint" />
          </mxGeometry>
        </mxCell>
        <mxCell id="FLbaVPVIVYFWpMP3JH_1-42" value="" style="endArrow=classic;html=1;rounded=0;exitX=0;exitY=0.5;exitDx=0;exitDy=0;entryX=1;entryY=0.5;entryDx=0;entryDy=0;" edge="1" parent="WIyWlLk6GJQsqaUBKTNV-1" source="FLbaVPVIVYFWpMP3JH_1-39" target="FLbaVPVIVYFWpMP3JH_1-22">
          <mxGeometry width="50" height="50" relative="1" as="geometry">
            <mxPoint x="480" y="-830" as="sourcePoint" />
            <mxPoint x="230" y="-895" as="targetPoint" />
          </mxGeometry>
        </mxCell>
        <mxCell id="FLbaVPVIVYFWpMP3JH_1-43" value="many to many" style="text;html=1;strokeColor=none;fillColor=none;align=center;verticalAlign=middle;whiteSpace=wrap;rounded=0;" vertex="1" parent="WIyWlLk6GJQsqaUBKTNV-1">
          <mxGeometry x="330" y="-947.5" width="90" height="30" as="geometry" />
        </mxCell>
        <mxCell id="FLbaVPVIVYFWpMP3JH_1-44" value="" style="endArrow=classic;html=1;rounded=0;exitX=0.5;exitY=1;exitDx=0;exitDy=0;" edge="1" parent="WIyWlLk6GJQsqaUBKTNV-1" source="FLbaVPVIVYFWpMP3JH_1-43">
          <mxGeometry width="50" height="50" relative="1" as="geometry">
            <mxPoint x="400" y="-870" as="sourcePoint" />
            <mxPoint x="375" y="-880" as="targetPoint" />
          </mxGeometry>
        </mxCell>
        <mxCell id="FLbaVPVIVYFWpMP3JH_1-46" value="Student" style="swimlane;fontStyle=0;align=center;verticalAlign=top;childLayout=stackLayout;horizontal=1;startSize=26;horizontalStack=0;resizeParent=1;resizeLast=0;collapsible=1;marginBottom=0;rounded=0;shadow=0;strokeWidth=1;" vertex="1" parent="WIyWlLk6GJQsqaUBKTNV-1">
          <mxGeometry x="100" y="-609" width="160" height="120" as="geometry">
            <mxRectangle x="130" y="380" width="160" height="26" as="alternateBounds" />
          </mxGeometry>
        </mxCell>
        <mxCell id="FLbaVPVIVYFWpMP3JH_1-47" value="id: serial" style="text;align=left;verticalAlign=top;spacingLeft=4;spacingRight=4;overflow=hidden;rotatable=0;points=[[0,0.5],[1,0.5]];portConstraint=eastwest;" vertex="1" parent="FLbaVPVIVYFWpMP3JH_1-46">
          <mxGeometry y="26" width="160" height="26" as="geometry" />
        </mxCell>
        <mxCell id="FLbaVPVIVYFWpMP3JH_1-48" value="name : varchar(255)&#xa;&#xa;pass_id: int" style="text;align=left;verticalAlign=top;spacingLeft=4;spacingRight=4;overflow=hidden;rotatable=0;points=[[0,0.5],[1,0.5]];portConstraint=eastwest;rounded=0;shadow=0;html=0;" vertex="1" parent="FLbaVPVIVYFWpMP3JH_1-46">
          <mxGeometry y="52" width="160" height="68" as="geometry" />
        </mxCell>
        <mxCell id="FLbaVPVIVYFWpMP3JH_1-49" value="teacher" style="swimlane;fontStyle=0;align=center;verticalAlign=top;childLayout=stackLayout;horizontal=1;startSize=26;horizontalStack=0;resizeParent=1;resizeLast=0;collapsible=1;marginBottom=0;rounded=0;shadow=0;strokeWidth=1;" vertex="1" parent="WIyWlLk6GJQsqaUBKTNV-1">
          <mxGeometry x="530" y="-1110" width="160" height="80" as="geometry">
            <mxRectangle x="340" y="380" width="170" height="26" as="alternateBounds" />
          </mxGeometry>
        </mxCell>
        <mxCell id="FLbaVPVIVYFWpMP3JH_1-50" value="id: serial&#xa;&#xa;name: varchar(255)" style="text;align=left;verticalAlign=top;spacingLeft=4;spacingRight=4;overflow=hidden;rotatable=0;points=[[0,0.5],[1,0.5]];portConstraint=eastwest;" vertex="1" parent="FLbaVPVIVYFWpMP3JH_1-49">
          <mxGeometry y="26" width="160" height="44" as="geometry" />
        </mxCell>
        <mxCell id="FLbaVPVIVYFWpMP3JH_1-51" value="pass" style="swimlane;fontStyle=0;align=center;verticalAlign=top;childLayout=stackLayout;horizontal=1;startSize=26;horizontalStack=0;resizeParent=1;resizeLast=0;collapsible=1;marginBottom=0;rounded=0;shadow=0;strokeWidth=1;" vertex="1" parent="WIyWlLk6GJQsqaUBKTNV-1">
          <mxGeometry x="490" y="-599" width="160" height="110" as="geometry">
            <mxRectangle x="340" y="380" width="170" height="26" as="alternateBounds" />
          </mxGeometry>
        </mxCell>
        <mxCell id="FLbaVPVIVYFWpMP3JH_1-52" value="id: serial&#xa;&#xa;seria: int&#xa;&#xa;number: int" style="text;align=left;verticalAlign=top;spacingLeft=4;spacingRight=4;overflow=hidden;rotatable=0;points=[[0,0.5],[1,0.5]];portConstraint=eastwest;" vertex="1" parent="FLbaVPVIVYFWpMP3JH_1-51">
          <mxGeometry y="26" width="160" height="84" as="geometry" />
        </mxCell>
        <mxCell id="FLbaVPVIVYFWpMP3JH_1-54" value="" style="endArrow=classic;html=1;rounded=0;exitX=1;exitY=0.676;exitDx=0;exitDy=0;exitPerimeter=0;entryX=-0.031;entryY=0.25;entryDx=0;entryDy=0;entryPerimeter=0;" edge="1" parent="WIyWlLk6GJQsqaUBKTNV-1" source="FLbaVPVIVYFWpMP3JH_1-48" target="FLbaVPVIVYFWpMP3JH_1-52">
          <mxGeometry width="50" height="50" relative="1" as="geometry">
            <mxPoint x="390" y="-579" as="sourcePoint" />
            <mxPoint x="440" y="-629" as="targetPoint" />
          </mxGeometry>
        </mxCell>
        <mxCell id="FLbaVPVIVYFWpMP3JH_1-55" value="one to one" style="text;html=1;strokeColor=none;fillColor=none;align=center;verticalAlign=middle;whiteSpace=wrap;rounded=0;" vertex="1" parent="WIyWlLk6GJQsqaUBKTNV-1">
          <mxGeometry x="345" y="-679" width="60" height="30" as="geometry" />
        </mxCell>
        <mxCell id="FLbaVPVIVYFWpMP3JH_1-56" value="" style="endArrow=classic;html=1;rounded=0;exitX=0.367;exitY=1.2;exitDx=0;exitDy=0;exitPerimeter=0;" edge="1" parent="WIyWlLk6GJQsqaUBKTNV-1" source="FLbaVPVIVYFWpMP3JH_1-55">
          <mxGeometry width="50" height="50" relative="1" as="geometry">
            <mxPoint x="390" y="-579" as="sourcePoint" />
            <mxPoint x="370" y="-579" as="targetPoint" />
          </mxGeometry>
        </mxCell>
      </root>
    </mxGraphModel>
  </diagram>
</mxfile>
